<svg width="18" height="20" viewBox="0 0 18 20" fill="none" xmlns="http://www.w3.org/2000/svg">
<path d="M17.8151 18.0067L11.0158 1.56798C10.6323 0.718062 10.0622 0.303467 9.31076 0.303467H8.7096C7.95814 0.303467 7.38807 0.718062 7.00457 1.56798L4.0454 8.73011H1.80659C1.13805 8.7353 0.593894 9.27427 0.588712 9.94799V9.96354C0.593894 10.6321 1.13805 11.1762 1.80659 11.1814H3.00891L0.184482 18.0067C0.132657 18.157 0.101562 18.3124 0.101562 18.4731C0.101562 18.8566 0.220758 19.1572 0.433238 19.3904C0.645718 19.6236 0.951483 19.7376 1.33498 19.7376C1.58892 19.7324 1.8325 19.6547 2.03461 19.5044C2.25227 19.3541 2.40257 19.1365 2.52176 18.8877L5.63123 11.1762H7.78712C8.45566 11.171 8.99981 10.6321 9.00499 9.95835V9.92726C8.99981 9.25872 8.45566 8.71457 7.78712 8.70939H6.63662L9.01018 2.79622L15.4779 18.8825C15.5971 19.1313 15.7473 19.3489 15.965 19.4992C16.1671 19.6495 16.4159 19.7273 16.6646 19.7324C17.0481 19.7324 17.3487 19.6184 17.5664 19.3852C17.784 19.152 17.8981 18.8514 17.8981 18.4679C17.9032 18.3124 17.8773 18.1518 17.8151 18.0067Z" fill="white"/>
</svg>
