<svg width="13" height="17" viewBox="0 0 13 17" fill="none" xmlns="http://www.w3.org/2000/svg">
<path d="M12.6704 8.52789C8.88424 6.48921 4.31542 6.52562 0.565702 8.6007L0.529297 8.6189C0.765929 11.7315 2.7136 14.4619 5.57139 15.6997L6.33589 16.0273C6.48151 16.0819 6.64534 16.0819 6.79096 16.0273L7.66468 15.6633C10.5771 14.4619 12.5612 11.7497 12.816 8.6189L12.6704 8.52789Z" fill="#A5ABDD"/>
<path d="M12.5436 3.15823L6.88259 0.136619C6.70057 0.0456062 6.50034 0.0456062 6.31832 0.136619L0.821161 3.15823C0.639136 3.26745 0.511719 3.46768 0.511719 3.6679V7.05357C4.40705 5.16051 8.95768 5.16051 12.853 7.07177V3.68611C12.853 3.46768 12.7438 3.26745 12.5436 3.15823Z" fill="#A5ABDD"/>
</svg>
