<svg width="24" height="24" viewBox="0 0 24 24" fill="none" xmlns="http://www.w3.org/2000/svg">
<path d="M16.1505 0.0120105C16.1008 -0.0449893 14.3105 0.0345104 12.7525 1.77C11.1945 3.50399 11.4341 5.49298 11.4692 5.54398C11.5043 5.59498 13.6908 5.67448 15.0865 3.65699C16.4823 1.6395 16.2002 0.0705102 16.1505 0.0120105ZM20.9941 17.6114C20.9239 17.4674 17.596 15.7604 17.9059 12.4784C18.2157 9.19496 20.3539 8.29497 20.3876 8.19747C20.4212 8.09997 19.515 7.01248 18.5548 6.46198C17.8498 6.07386 17.0695 5.85149 16.2704 5.81098C16.1125 5.80648 15.5645 5.66848 14.4376 5.98498C13.6952 6.19348 12.0217 6.86848 11.5613 6.89548C11.0995 6.92248 9.7256 6.11248 8.24798 5.89798C7.30237 5.71048 6.29975 6.09448 5.58213 6.38998C4.86598 6.68398 3.50382 7.52097 2.55089 9.74546C1.59797 11.9685 2.09635 15.4904 2.45297 16.5854C2.80959 17.6789 3.36643 19.4714 4.31351 20.7794C5.15536 22.2554 6.27198 23.2799 6.73821 23.6279C7.20444 23.9759 8.51983 24.2069 9.43183 23.7284C10.1655 23.2664 11.4897 23.0009 12.0129 23.0204C12.5347 23.0399 13.5636 23.2514 14.6174 23.8289C15.4519 24.1244 16.2412 24.0014 17.0319 23.6714C17.8225 23.3399 18.9669 22.0829 20.3028 19.5344C20.8099 18.3494 21.0409 17.7089 20.9941 17.6114Z" fill="#111111"/>
<path d="M16.1505 0.0120105C16.1008 -0.0449893 14.3105 0.0345104 12.7525 1.77C11.1945 3.50399 11.4341 5.49298 11.4692 5.54398C11.5043 5.59498 13.6908 5.67448 15.0865 3.65699C16.4823 1.6395 16.2002 0.0705102 16.1505 0.0120105ZM20.9941 17.6114C20.9239 17.4674 17.596 15.7604 17.9059 12.4784C18.2157 9.19496 20.3539 8.29497 20.3876 8.19747C20.4212 8.09997 19.515 7.01248 18.5548 6.46198C17.8498 6.07386 17.0695 5.85149 16.2704 5.81098C16.1125 5.80648 15.5645 5.66848 14.4376 5.98498C13.6952 6.19348 12.0217 6.86848 11.5613 6.89548C11.0995 6.92248 9.7256 6.11248 8.24798 5.89798C7.30237 5.71048 6.29975 6.09448 5.58213 6.38998C4.86598 6.68398 3.50382 7.52097 2.55089 9.74546C1.59797 11.9685 2.09635 15.4904 2.45297 16.5854C2.80959 17.6789 3.36643 19.4714 4.31351 20.7794C5.15536 22.2554 6.27198 23.2799 6.73821 23.6279C7.20444 23.9759 8.51983 24.2069 9.43183 23.7284C10.1655 23.2664 11.4897 23.0009 12.0129 23.0204C12.5347 23.0399 13.5636 23.2514 14.6174 23.8289C15.4519 24.1244 16.2412 24.0014 17.0319 23.6714C17.8225 23.3399 18.9669 22.0829 20.3028 19.5344C20.8099 18.3494 21.0409 17.7089 20.9941 17.6114Z" fill="#111111"/>
</svg>
