<svg width="45" height="45" viewBox="0 0 45 45" fill="none" xmlns="http://www.w3.org/2000/svg">
<rect x="0.75" y="0.918823" width="44" height="44" rx="15" fill="url(#paint0_linear)"/>
<path d="M31.5651 30.9049L24.7658 14.4662C24.3823 13.6163 23.8122 13.2017 23.0608 13.2017H22.4596C21.7081 13.2017 21.1381 13.6163 20.7546 14.4662L17.7954 21.6283H15.5566C14.8881 21.6335 14.3439 22.1725 14.3387 22.8462V22.8617C14.3439 23.5303 14.8881 24.0744 15.5566 24.0796H16.7589L13.9345 30.9049C13.8827 31.0552 13.8516 31.2106 13.8516 31.3713C13.8516 31.7548 13.9708 32.0554 14.1832 32.2886C14.3957 32.5218 14.7015 32.6358 15.085 32.6358C15.3389 32.6306 15.5825 32.5529 15.7846 32.4026C16.0023 32.2523 16.1526 32.0346 16.2718 31.7859L19.3812 24.0744H21.5371C22.2057 24.0692 22.7498 23.5303 22.755 22.8565V22.8255C22.7498 22.1569 22.2057 21.6128 21.5371 21.6076H20.3866L22.7602 15.6944L29.2279 31.7807C29.3471 32.0295 29.4973 32.2471 29.715 32.3974C29.9171 32.5477 30.1659 32.6254 30.4146 32.6306C30.7981 32.6306 31.0987 32.5166 31.3164 32.2834C31.534 32.0502 31.6481 31.7496 31.6481 31.3661C31.6532 31.2106 31.6273 31.05 31.5651 30.9049Z" fill="white"/>
<defs>
<linearGradient id="paint0_linear" x1="55.3815" y1="0.918821" x2="0.750001" y2="54.933" gradientUnits="userSpaceOnUse">
<stop stop-color="#FF24F6"/>
<stop offset="0.9999" stop-color="#28FC97"/>
<stop offset="1" stop-color="#24FF96"/>
</linearGradient>
</defs>
</svg>
