<svg width="16" height="17" viewBox="0 0 16 17" fill="none" xmlns="http://www.w3.org/2000/svg">
<path fill-rule="evenodd" clip-rule="evenodd" d="M13.2454 10.9978H13.55C14.3742 10.9978 15.073 11.6787 15.073 12.5208C15.073 13.3629 14.3742 14.0437 13.55 14.0437H10.1458C9.93076 15.1904 8.89158 16.0684 7.67321 16.0684C6.45485 16.0684 5.45148 15.1904 5.20064 14.0437H1.79639C0.95429 14.0437 0.273438 13.345 0.273438 12.5208C0.273438 11.6787 0.972198 10.9978 1.79639 10.9978H2.10099V8.14899C2.10099 5.55101 3.85686 3.36511 6.22192 2.72009C6.06067 2.45134 5.95318 2.12883 5.95318 1.80632V1.78841C5.95318 0.8388 6.7236 0.0683594 7.67321 0.0683594C8.62281 0.0683594 9.39325 0.8388 9.39325 1.78841V1.80632C9.39325 2.14675 9.28576 2.45134 9.12451 2.72009C11.5075 3.36511 13.2454 5.55101 13.2454 8.14899V10.9978Z" fill="#A5ABDD"/>
</svg>
