<svg width="23" height="23" viewBox="0 0 23 23" fill="none" xmlns="http://www.w3.org/2000/svg">
<path d="M15.9668 13.3352L11.5 17.802L7.0311 13.3332L4.4321 15.9323L11.5 23L18.5656 15.9344L15.9667 13.3354L15.9668 13.3352ZM23 11.5L20.4009 14.0994L17.802 11.5005L20.4011 8.9014L23 11.5ZM15.9668 9.66445L11.5 5.19793L7.03119 9.66657L4.43081 7.06894L4.4321 7.06756L11.5 -9.13143e-05L18.5656 7.06554L18.5693 7.06922L15.9665 9.66473L15.9668 9.66445ZM5.198 11.4989L2.59891 14.098L-5.10365e-07 11.499L2.599 8.89993L5.198 11.4989Z" fill="white"/>
<path d="M8.86404 11.5014H8.86293L11.5 14.1387L13.4492 12.19L13.6732 11.966L14.135 11.5041L14.1387 11.5005L14.135 11.4967L11.5 8.86134L8.86275 11.4986L8.86146 11.5001L8.86385 11.5014" fill="white"/>
</svg>
