<svg width="22" height="30" viewBox="0 0 22 30" fill="none" xmlns="http://www.w3.org/2000/svg">
<path d="M21.0714 15.6354C20.38 14.7414 19.3368 14.1274 17.9418 13.7936C19.7183 12.8875 20.499 11.3495 20.2847 9.17941C20.213 8.3925 19.9955 7.71051 19.6317 7.13243C19.2677 6.55423 18.7764 6.0894 18.1561 5.73775C17.5362 5.38567 16.862 5.11764 16.1351 4.93286C15.408 4.74808 14.5733 4.61391 13.6314 4.53054V0.0239258H10.8776V4.40533C10.4008 4.40533 9.67354 4.41723 8.69602 4.4411V0.0239258H5.94187V4.53054C5.54832 4.54251 4.97018 4.54858 4.20719 4.54858L0.416016 4.53054V7.46347H2.40093C3.30703 7.46347 3.83757 7.86892 3.99254 8.67951V13.8121C4.11192 13.8121 4.20719 13.8183 4.27879 13.8302H3.99254V21.019C3.89726 21.6269 3.55157 21.9311 2.95539 21.9311H0.970605L0.416141 25.2038H3.99285C4.21941 25.2038 4.54706 25.2068 4.97644 25.2122C5.40557 25.2182 5.72734 25.2212 5.94199 25.2212V29.7814H8.69659V25.2748C9.19718 25.2871 9.9244 25.2929 10.8782 25.2929V29.7814H13.632V25.2212C14.6098 25.1736 15.4771 25.0847 16.2338 24.9531C16.9909 24.8215 17.7154 24.6162 18.4067 24.3358C19.098 24.0558 19.6761 23.7068 20.141 23.2896C20.6062 22.8726 20.9903 22.3419 21.2949 21.698C21.5984 21.054 21.7924 20.3089 21.8756 19.4622C22.0312 17.8055 21.7628 16.5297 21.0714 15.6354ZM8.74958 7.65965C8.83307 7.65965 9.06853 7.65664 9.456 7.65063C9.84366 7.64449 10.1654 7.6386 10.4217 7.63259C10.6781 7.6267 11.0239 7.64161 11.4592 7.67737C11.8943 7.71314 12.2609 7.76093 12.5589 7.82044C12.8568 7.87994 13.185 7.97834 13.5423 8.11546C13.9003 8.25244 14.1862 8.41944 14.4006 8.61612C14.6154 8.8128 14.7971 9.06328 14.9459 9.36732C15.0951 9.6713 15.1696 10.02 15.1696 10.4134C15.1696 10.7472 15.1161 11.0513 15.0089 11.3257C14.9019 11.5998 14.7406 11.8294 14.5262 12.0142C14.3118 12.199 14.0908 12.3601 13.8643 12.4971C13.638 12.6341 13.3486 12.7445 12.997 12.8278C12.6455 12.9113 12.3385 12.9769 12.0764 13.0245C11.814 13.0722 11.4863 13.1051 11.0928 13.1229C10.6992 13.1407 10.4011 13.1529 10.1985 13.1588C9.99574 13.1646 9.71864 13.1646 9.36681 13.1588C9.01491 13.1529 8.80952 13.1497 8.74977 13.1497V7.65958H8.74958V7.65965ZM16.2698 19.838C16.1562 20.1124 16.0104 20.3509 15.8317 20.5538C15.6527 20.7561 15.4171 20.9351 15.1252 21.0899C14.8333 21.2451 14.5498 21.37 14.2759 21.4654C14.0015 21.5612 13.6705 21.6442 13.2834 21.716C12.8955 21.7876 12.5559 21.8379 12.2635 21.8679C11.9716 21.8978 11.623 21.9216 11.2175 21.9396C10.8123 21.9571 10.4962 21.9662 10.2697 21.9662C10.0432 21.9662 9.75697 21.963 9.41121 21.9571C9.06527 21.9516 8.84491 21.9486 8.74945 21.9486V15.9038C8.84472 15.9038 9.12791 15.8979 9.59894 15.8858C10.07 15.8738 10.4543 15.8682 10.7524 15.8682C11.0504 15.8682 11.4619 15.8858 11.9867 15.9218C12.5109 15.9573 12.9521 16.0107 13.3101 16.0823C13.6676 16.1539 14.0578 16.2641 14.4813 16.4133C14.9044 16.5622 15.2474 16.744 15.5098 16.9586C15.7721 17.1735 15.9925 17.4473 16.1713 17.7812C16.3505 18.115 16.4399 18.4966 16.4399 18.9259C16.4398 19.2601 16.3832 19.5636 16.2698 19.838Z" fill="white"/>
</svg>
