<svg width="35" height="36" viewBox="0 0 35 36" fill="none" xmlns="http://www.w3.org/2000/svg">
<rect y="0.255127" width="35" height="35" rx="12" fill="#FF7324"/>
<path d="M23.9028 18.2288C23.4559 17.6508 22.7815 17.2539 21.8796 17.0381C23.0281 16.4523 23.5328 15.4581 23.3942 14.0552C23.3479 13.5465 23.2073 13.1056 22.9721 12.7319C22.7368 12.3581 22.4192 12.0576 22.0182 11.8303C21.6174 11.6027 21.1816 11.4294 20.7117 11.3099C20.2417 11.1905 19.702 11.1038 19.0931 11.0499V8.13647H17.3129V10.9689C17.0046 10.9689 16.5345 10.9766 15.9026 10.992V8.13647H14.1221V11.0499C13.8677 11.0576 13.4939 11.0615 13.0007 11.0615L10.5498 11.0499V12.9459H11.833C12.4188 12.9459 12.7617 13.208 12.8619 13.732V17.0501C12.9391 17.0501 13.0007 17.0541 13.047 17.0618H12.8619V21.7091C12.8003 22.1021 12.5768 22.2987 12.1914 22.2987H10.9083L10.5499 24.4145H12.8621C13.0086 24.4145 13.2204 24.4164 13.498 24.4199C13.7754 24.4238 13.9834 24.4257 14.1222 24.4257V27.3737H15.9029V24.4604C16.2265 24.4683 16.6967 24.472 17.3133 24.472V27.3737H19.0935V24.4257C19.7257 24.3949 20.2863 24.3374 20.7755 24.2524C21.265 24.1673 21.7333 24.0345 22.1802 23.8533C22.6271 23.6723 23.0008 23.4467 23.3014 23.1769C23.6021 22.9074 23.8504 22.5643 24.0473 22.148C24.2435 21.7318 24.3689 21.2501 24.4227 20.7027C24.5233 19.6317 24.3498 18.8069 23.9028 18.2288ZM15.9372 13.0727C15.9912 13.0727 16.1434 13.0708 16.3939 13.0669C16.6445 13.0629 16.8525 13.0591 17.0182 13.0552C17.1839 13.0514 17.4074 13.0611 17.6889 13.0842C17.9702 13.1073 18.2071 13.1382 18.3998 13.1767C18.5924 13.2151 18.8045 13.2787 19.0355 13.3674C19.267 13.4559 19.4518 13.5639 19.5904 13.691C19.7292 13.8182 19.8467 13.9801 19.9429 14.1767C20.0394 14.3732 20.0875 14.5986 20.0875 14.8529C20.0875 15.0687 20.0529 15.2653 19.9836 15.4427C19.9145 15.6199 19.8102 15.7683 19.6716 15.8878C19.533 16.0073 19.3901 16.1114 19.2437 16.2C19.0974 16.2885 18.9103 16.3599 18.683 16.4138C18.4558 16.4678 18.2573 16.5102 18.0878 16.5409C17.9183 16.5718 17.7064 16.593 17.452 16.6045C17.1976 16.616 17.0048 16.6239 16.8739 16.6277C16.7428 16.6315 16.5636 16.6315 16.3362 16.6277C16.1087 16.6239 15.9759 16.6219 15.9373 16.6219V13.0727H15.9372V13.0727ZM20.7988 20.9456C20.7253 21.123 20.6311 21.2772 20.5156 21.4083C20.3998 21.5391 20.2475 21.6549 20.0588 21.7549C19.8701 21.8553 19.6869 21.936 19.5097 21.9977C19.3324 22.0596 19.1184 22.1133 18.8682 22.1597C18.6174 22.206 18.3979 22.2385 18.2088 22.2579C18.0201 22.2772 17.7948 22.2926 17.5326 22.3042C17.2707 22.3156 17.0663 22.3215 16.9199 22.3215C16.7734 22.3215 16.5884 22.3193 16.3649 22.3156C16.1413 22.312 15.9988 22.31 15.9371 22.31V18.4023C15.9987 18.4023 16.1818 18.3985 16.4863 18.3906C16.7908 18.3829 17.0392 18.3793 17.2319 18.3793C17.4246 18.3793 17.6906 18.3906 18.0299 18.4139C18.3688 18.4369 18.654 18.4714 18.8854 18.5177C19.1165 18.564 19.3688 18.6352 19.6426 18.7316C19.9161 18.8279 20.1378 18.9454 20.3074 19.0842C20.477 19.2231 20.6195 19.4001 20.7351 19.616C20.8509 19.8317 20.9087 20.0784 20.9087 20.356C20.9087 20.572 20.8721 20.7682 20.7988 20.9456Z" fill="white"/>
</svg>
