<svg width="10" height="17" viewBox="0 0 10 17" fill="none" xmlns="http://www.w3.org/2000/svg">
<path d="M5.95338 15.7259L9.79065 10.9044C10.1769 10.4061 9.82802 9.65855 9.19263 9.65855L7.90939 9.65855C7.49825 9.65855 7.13695 9.38446 7.13695 8.97332L7.13695 1.31124C7.13695 0.900105 6.83794 0.563721 6.41435 0.563721L4.39604 0.56372C3.99737 0.56372 3.64852 0.900105 3.64852 1.31124L3.64852 8.97332C3.64852 9.38446 3.32447 9.65855 2.91346 9.65855L1.63022 9.65855C1.00729 9.65855 0.658443 10.4061 1.04466 10.892L4.78226 15.701C5.06881 16.0997 5.65437 16.1121 5.95338 15.7259Z" fill="#BED8FF"/>
</svg>
