<svg width="18" height="23" viewBox="0 0 18 23" fill="none" xmlns="http://www.w3.org/2000/svg">
<path fill-rule="evenodd" clip-rule="evenodd" d="M1.37595 17.3062C0.835599 16.9754 0.504883 16.3881 0.504883 15.7556V12.2243C0.504883 11.8051 0.846441 11.4653 1.26571 11.4671C1.39944 11.4671 1.53137 11.5033 1.64703 11.5701L9.61493 16.2164C10.0812 16.4875 10.3685 16.9863 10.3685 17.5266V21.1844C10.3703 21.6868 9.96372 22.0952 9.46132 22.0952C9.29325 22.0952 9.12699 22.0482 8.98422 21.9615L1.37595 17.3062ZM13.2528 10.6033C13.7191 10.8744 14.0046 11.375 14.0064 11.9135V19.3374C14.0064 19.5561 13.8889 19.7585 13.6974 19.8651L11.9534 20.8464C11.9318 20.8591 11.9083 20.8681 11.883 20.8754V16.7532C11.883 16.22 11.6028 15.7249 11.1438 15.4502L4.14637 11.2647V6.6112C4.14637 6.19193 4.48793 5.85218 4.9072 5.85399C5.04093 5.85399 5.17286 5.89013 5.28852 5.957L13.2528 10.6033ZM16.7407 5.12027C17.2088 5.39135 17.4961 5.89194 17.4961 6.43229V17.2754C17.4943 17.4977 17.3714 17.7019 17.1762 17.8086L15.5226 18.7013V11.1527C15.5226 10.6196 15.2425 10.1262 14.7871 9.85149L7.63425 5.56122V1.14806C7.63425 1.01433 7.6704 0.882404 7.73545 0.766744C7.9469 0.405306 8.41134 0.282416 8.77278 0.492051L16.7407 5.12027Z" fill="white"/>
</svg>
