<svg width="18" height="18" viewBox="0 0 18 18" fill="none" xmlns="http://www.w3.org/2000/svg">
<path d="M12.4519 3.36366L9.25763 0.169394C9.10856 0.00968014 8.88496 -0.0329101 8.68266 0.0522704C8.48036 0.137451 8.35259 0.329107 8.35259 0.542059V2.13919H7.82021C3.71025 2.13919 0.409499 5.75937 0.963173 9.9758C1.17506 11.624 1.98108 13.0455 3.15125 14.0985C3.35781 14.2849 3.6815 14.2636 3.87848 14.0666L5.35849 12.5866C5.57038 12.3747 5.57251 12.0244 5.34678 11.8274C4.76329 11.3206 4.34271 10.6381 4.17874 9.83739C3.6783 7.44168 5.50968 5.33346 7.82021 5.33346H8.35259V6.9306C8.35259 7.14355 8.48036 7.33521 8.68266 7.42039C8.88496 7.50557 9.10856 7.46298 9.25763 7.30326L12.4519 4.10899C12.6649 3.90669 12.6649 3.56597 12.4519 3.36366Z" fill="white"/>
<path d="M17.8716 7.07969C17.6597 5.43145 16.8537 4.00893 15.6835 2.95695C15.4769 2.77062 15.1533 2.79192 14.9563 2.9889L13.4763 4.46891C13.2644 4.6808 13.2623 5.0311 13.488 5.22808C14.0704 5.73597 14.492 6.41848 14.656 7.21811C15.1565 9.61381 13.3251 11.722 11.0146 11.722H10.4822V10.1249C10.4822 9.91195 10.3544 9.72029 10.1521 9.63511C9.94979 9.54993 9.7262 9.59252 9.57713 9.75223L6.38286 12.9465C6.16991 13.1488 6.16991 13.4895 6.38286 13.6918L9.57713 16.8861C9.7262 17.0458 9.94979 17.0884 10.1521 17.0032C10.3544 16.918 10.4822 16.7264 10.4822 16.5134V14.9163H11.0146C15.1245 14.9163 18.4253 11.2961 17.8716 7.07969Z" fill="#BED8FF"/>
</svg>
