<svg width="24" height="20" viewBox="0 0 24 20" fill="none" xmlns="http://www.w3.org/2000/svg">
<path d="M15.6485 0.799805H7.07863L6.36791 4.77065L14.1033 4.77982C17.9136 4.77982 19.037 6.16457 19.0049 8.4572C18.9866 9.63103 18.4776 11.621 18.2575 12.2676C17.6706 13.987 16.4647 15.9449 11.9436 15.9404L4.42376 15.9358L3.71533 19.9112H12.2669C15.284 19.9112 16.5633 19.5581 17.9251 18.9345C20.9376 17.536 22.7304 14.5648 23.4503 10.6856C24.5164 4.90821 23.1867 0.799805 15.6485 0.799805Z" fill="white"/>
<path d="M3.38055 8.36096C1.13377 8.36096 0.812798 9.82366 0.601876 10.7086C0.322174 11.8641 0.230469 12.3364 0.230469 12.3364H9.00667C11.2535 12.3364 11.5744 10.8737 11.7853 9.98873C12.065 8.83324 12.1568 8.36096 12.1568 8.36096H3.38055Z" fill="white"/>
</svg>
