<svg width="20" height="16" viewBox="0 0 20 16" fill="none" xmlns="http://www.w3.org/2000/svg">
<path d="M16.3631 0.402587C16.8494 0.463373 17.356 0.503897 17.8423 0.584946C18.7946 0.767305 19.1188 1.2536 18.9567 2.22618C18.9162 2.5909 18.6325 2.87457 18.2678 2.93536C18.0449 2.97588 17.8017 2.99614 17.5789 2.97588C14.418 2.97588 11.2773 2.99614 8.11643 2.99614C7.6504 2.99614 7.16411 3.03667 6.69808 3.11772C5.13789 3.36086 4.53002 4.00925 4.40845 5.5897C4.34766 6.31914 4.34766 6.31914 5.09737 6.31914H17.6599C17.7815 6.31914 17.9031 6.31914 18.0246 6.31914C18.2273 6.31914 18.4096 6.37993 18.592 6.48124C19.1593 6.84596 19.0175 7.43356 18.9972 7.96038C18.977 8.38588 18.7135 8.62903 18.2678 8.71008C18.0854 8.7506 17.9031 8.7506 17.7004 8.7506C13.4049 8.7506 9.10927 8.7506 4.81369 8.7506C4.34766 8.7506 4.34766 8.7506 4.38819 9.21663C4.40845 9.64214 4.44898 10.0676 4.55029 10.4931C4.75291 11.2631 5.21894 11.7494 6.00916 11.9723C6.86017 12.2154 7.75171 12.256 8.62298 12.2762C11.6826 12.2762 14.7624 12.2762 17.8423 12.2762C18.2273 12.2762 18.592 12.3167 18.8351 12.6815C19.2201 13.2893 19.0175 14.0796 18.4096 14.4645C18.3286 14.5253 18.2475 14.5658 18.1462 14.5861C17.4776 14.809 16.7886 14.8495 16.0795 14.8698C13.182 14.9306 10.3047 14.9306 7.42751 14.8698C6.53598 14.8495 5.64444 14.7482 4.77317 14.5658C2.72669 14.1403 1.69332 13.0867 1.34886 11.02C1.26781 10.5539 1.22729 10.0676 1.1665 9.58135V5.81259C1.20703 5.44787 1.24755 5.06289 1.28808 4.69817C1.55149 2.36802 2.60512 1.21307 4.89474 0.686257C5.70523 0.503897 6.55624 0.463373 7.36673 0.382324L16.3631 0.402587Z" fill="white"/>
<path d="M11.7433 15.275C10.2845 15.275 8.84584 15.2547 7.40723 15.2345C6.49543 15.2142 5.58363 15.1129 4.69209 14.9103C2.48352 14.4442 1.34884 13.269 0.984118 11.0807C0.923331 10.7363 0.882807 10.3918 0.862545 10.0676C0.842282 9.92578 0.82202 9.78395 0.801758 9.62185V9.58132V5.77204L0.842282 5.40732C0.862544 5.14391 0.903069 4.90076 0.923331 4.65762C1.207 2.16537 2.38221 0.888851 4.83393 0.341773C5.48232 0.199937 6.11045 0.139151 6.73857 0.0783645C6.9412 0.0581023 7.14382 0.0378403 7.34644 0.0175781H7.38696H16.4036H16.4239C16.5657 0.0378403 16.7278 0.0581026 16.8697 0.0581026C17.2141 0.098627 17.5586 0.118889 17.9233 0.199938C19.0782 0.422822 19.524 1.07121 19.3214 2.24642C19.2606 2.75297 18.8554 3.17848 18.3083 3.25953C18.0651 3.30005 17.822 3.32031 17.5586 3.32031C14.4179 3.34057 11.257 3.36084 8.1164 3.36084C7.67063 3.36084 7.2046 3.40136 6.75884 3.48241C5.36075 3.70529 4.89472 4.21185 4.77314 5.6302C4.77314 5.75177 4.75288 5.87335 4.75288 5.97466C4.83393 5.97466 4.97577 5.97466 5.09734 5.97466H18.0246C18.288 5.97466 18.5514 6.05571 18.7743 6.17728C19.4632 6.62305 19.4024 7.2917 19.3619 7.77799C19.3619 7.83878 19.3416 7.91983 19.3416 7.98061C19.3011 8.54795 18.9567 8.93293 18.3285 9.05451C18.1057 9.09503 17.903 9.09503 17.7004 9.09503H4.83393C4.81367 9.09503 4.77314 9.09503 4.75288 9.09503C4.75288 9.11529 4.75288 9.13556 4.75288 9.15582V9.17608C4.77314 9.60158 4.81367 10.0068 4.91498 10.4121C5.07708 11.0402 5.46206 11.4252 6.11045 11.6075C6.98172 11.8507 7.87326 11.8912 8.64322 11.8912C11.0342 11.9115 13.4656 11.9115 15.8363 11.9115H17.8625C18.1664 11.9115 18.7946 11.9115 19.1593 12.4991C19.4024 12.8841 19.4632 13.3298 19.3619 13.7553C19.2606 14.1808 18.9972 14.5456 18.6122 14.7887C18.5109 14.8495 18.3893 14.9103 18.2677 14.9508C17.518 15.1939 16.7481 15.2345 16.0997 15.2547C14.6611 15.2547 13.2022 15.275 11.7433 15.275ZM1.5312 9.56106C1.55146 9.7029 1.57172 9.84473 1.57172 9.98657C1.61224 10.3108 1.65277 10.635 1.69329 10.9592C2.01749 12.8638 2.92929 13.7959 4.83393 14.2011C5.68494 14.3835 6.55621 14.4848 7.42749 14.505C10.2845 14.5658 13.2022 14.5658 16.0794 14.505C16.667 14.4848 17.3762 14.4442 18.0246 14.2416C18.0854 14.2214 18.1462 14.1808 18.207 14.1606C18.4096 14.0187 18.5717 13.8161 18.6325 13.573C18.6933 13.3298 18.6527 13.0867 18.5109 12.8638C18.3893 12.6814 18.2272 12.6206 17.8422 12.6206H15.816C13.4656 12.6206 11.0139 12.6206 8.62296 12.6004C7.81247 12.6004 6.86015 12.5599 5.90782 12.2762C4.99603 12.033 4.42869 11.4454 4.2058 10.5336C4.10449 10.0879 4.04371 9.62185 4.04371 9.17608V9.15582C4.02344 8.87215 4.00318 8.66953 4.16528 8.48717C4.32738 8.30481 4.55026 8.30481 4.83393 8.30481H17.7207C17.8828 8.30481 18.0651 8.30481 18.2272 8.26428C18.5514 8.2035 18.6325 8.06166 18.6527 7.85904C18.6527 7.77799 18.673 7.7172 18.673 7.63615C18.7135 7.1296 18.7135 6.88645 18.4298 6.70409C18.3285 6.64331 18.1867 6.60278 18.0651 6.60278H5.09734C4.65157 6.60278 4.38816 6.60278 4.18554 6.40016C3.98292 6.19754 4.02344 5.91387 4.04371 5.48836C4.18554 3.74582 4.91498 2.95559 6.63726 2.69218C7.12356 2.61114 7.60985 2.57061 8.1164 2.55035C11.2773 2.55035 14.4179 2.53009 17.5788 2.53009C17.8017 2.53009 18.0043 2.53009 18.207 2.48956C18.4096 2.4693 18.5717 2.3072 18.5919 2.10458C18.7338 1.29409 18.5312 1.03069 17.7612 0.868589C17.437 0.807803 17.1128 0.767278 16.7886 0.747016C16.6468 0.726754 16.4847 0.706492 16.3428 0.706492H7.38696C7.18434 0.726754 6.98172 0.747016 6.7791 0.767279C6.15097 0.828065 5.56337 0.86859 4.9555 1.01042C2.82798 1.53724 1.89592 2.57061 1.65277 4.75893C1.63251 5.00207 1.59198 5.24522 1.57172 5.50863L1.5312 5.85308V9.56106Z" fill="white"/>
</svg>
