<svg width="18" height="11" viewBox="0 0 18 11" fill="none" xmlns="http://www.w3.org/2000/svg">
<path d="M9.41757 10.6047C6.16298 10.6047 3.21154 8.82412 1.03368 5.93191C0.855962 5.69496 0.855962 5.36393 1.03368 5.12698C3.21154 2.23129 6.16298 0.450672 9.41757 0.450672C12.6722 0.450672 15.6236 2.23129 17.8015 5.12349C17.9792 5.36044 17.9792 5.69148 17.8015 5.92843C15.6236 8.82412 12.6722 10.6047 9.41757 10.6047ZM9.65104 1.95253C7.4906 1.81663 5.7065 3.59725 5.8424 5.76117C5.9539 7.54528 7.4 8.99138 9.18411 9.10288C11.3445 9.23878 13.1287 7.45816 12.9928 5.29424C12.8778 3.51362 11.4317 2.06752 9.65104 1.95253ZM9.54302 3.60422C8.37917 3.53104 7.41743 4.4893 7.49409 5.65315C7.55333 6.61489 8.33387 7.39195 9.29562 7.45468C10.4595 7.52785 11.4212 6.56959 11.3445 5.40574C11.2818 4.44051 10.5013 3.66345 9.54302 3.60422Z" fill="white"/>
<circle cx="9.41729" cy="5.52777" r="1.93976" fill="#BED8FF"/>
</svg>
