<svg width="21" height="21" viewBox="0 0 21 21" fill="none" xmlns="http://www.w3.org/2000/svg">
<path d="M4.93245 12.6182L4.23627 15.2172L1.69176 15.271C0.931331 13.8606 0.5 12.2468 0.5 10.532C0.5 8.87373 0.903284 7.30997 1.61813 5.93304H1.61868L3.884 6.34836L4.87635 8.60009C4.66866 9.2056 4.55545 9.85561 4.55545 10.532C4.55553 11.266 4.6885 11.9694 4.93245 12.6182Z" fill="#FBBB00"/>
<path d="M20.3252 8.66382C20.4401 9.26874 20.4999 9.89347 20.4999 10.532C20.4999 11.2479 20.4247 11.9463 20.2813 12.6199C19.7945 14.9122 18.5225 16.9139 16.7604 18.3304L16.7598 18.3298L13.9065 18.1842L13.5027 15.6633C14.6719 14.9776 15.5857 13.9045 16.067 12.6199H10.7197V8.66382H16.145H20.3252Z" fill="#518EF8"/>
<path d="M16.7601 18.3298L16.7607 18.3303C15.0469 19.7078 12.87 20.532 10.5002 20.532C6.69192 20.532 3.38093 18.4034 1.69189 15.271L4.93258 12.6182C5.77707 14.8721 7.95127 16.4765 10.5002 16.4765C11.5958 16.4765 12.6222 16.1803 13.5029 15.6633L16.7601 18.3298Z" fill="#28B446"/>
<path d="M16.8831 2.83406L13.6435 5.48626C12.732 4.9165 11.6545 4.58735 10.5001 4.58735C7.89348 4.58735 5.67862 6.26537 4.87643 8.60003L1.61871 5.93299H1.61816C3.28247 2.72418 6.63523 0.53186 10.5001 0.53186C12.9265 0.53186 15.1512 1.39616 16.8831 2.83406Z" fill="#F14336"/>
</svg>
