<svg width="16" height="16" viewBox="0 0 16 16" fill="none" xmlns="http://www.w3.org/2000/svg">
<path d="M11.5034 6.90369H14.4418V12.0927H11.5034V6.90369Z" fill="#A5ABDD"/>
<path d="M6.50195 6.90369H9.44029V12.0927H6.50195V6.90369Z" fill="#A5ABDD"/>
<path d="M15.0043 13.0304C14.5323 13.0304 1.50905 13.0304 0.937767 13.0304C0.420682 13.0304 0 13.4511 0 13.9682V15.0622C0 15.5793 0.420682 16 0.937767 16H15.0043C15.5214 16 15.942 15.5793 15.942 15.0622V13.9682C15.942 13.4511 15.5214 13.0304 15.0043 13.0304Z" fill="#A5ABDD"/>
<path d="M15.3544 2.94394C8.13125 -0.00949486 8.32453 0.0694965 8.31934 0.0674021C8.09646 -0.0217795 7.84867 -0.0235925 7.61942 0.068715L0.587667 2.94394C0.230597 3.08761 0 3.42889 0 3.81391V5.02816C0 5.54524 0.420682 5.96593 0.937767 5.96593H15.0043C15.5214 5.96593 15.942 5.54524 15.942 5.02816V3.81391C15.942 3.42889 15.7114 3.08761 15.3544 2.94394V2.94394ZM8.4399 3.49644C8.4399 3.75539 8.22997 3.96532 7.97102 3.96532C7.71207 3.96532 7.50214 3.75539 7.50214 3.49644V2.49616C7.50214 2.23721 7.71207 2.02727 7.97102 2.02727C8.22997 2.02727 8.4399 2.23721 8.4399 2.49616V3.49644Z" fill="#A5ABDD"/>
<path d="M1.50049 6.90369H4.43882V12.0927H1.50049V6.90369Z" fill="#A5ABDD"/>
</svg>
