<svg width="35" height="35" viewBox="0 0 35 35" fill="none" xmlns="http://www.w3.org/2000/svg">
<circle cx="17.1842" cy="17.5338" r="17.1842" fill="#FF7324"/>
<path d="M23.4461 17.9971C23.009 17.4318 22.3494 17.0436 21.4673 16.8326C22.5905 16.2596 23.0842 15.2871 22.9487 13.915C22.9034 13.4174 22.7658 12.9862 22.5358 12.6207C22.3056 12.2551 21.995 11.9612 21.6027 11.7388C21.2108 11.5162 20.7845 11.3467 20.3249 11.2299C19.8652 11.1131 19.3374 11.0282 18.7418 10.9755V8.12598H17.0006V10.8963C16.6991 10.8963 16.2393 10.9039 15.6212 10.919V8.12598H13.8797V10.9755C13.6309 10.9831 13.2653 10.9869 12.7829 10.9869L10.3857 10.9755V12.83H11.6408C12.2137 12.83 12.5492 13.0864 12.6472 13.5989V16.8442C12.7227 16.8442 12.7829 16.8481 12.8282 16.8556H12.6472V21.4011C12.5869 21.7855 12.3683 21.9779 11.9914 21.9779H10.7364L10.3858 24.0472H12.6474C12.7906 24.0472 12.9978 24.0491 13.2693 24.0525C13.5406 24.0563 13.7441 24.0582 13.8798 24.0582V26.9416H15.6215V24.0921C15.9381 24.0998 16.3979 24.1035 17.001 24.1035V26.9416H18.7422V24.0582C19.3605 24.0281 19.9089 23.9719 20.3873 23.8887C20.866 23.8054 21.3241 23.6756 21.7613 23.4983C22.1983 23.3213 22.5639 23.1007 22.8578 22.8368C23.152 22.5732 23.3949 22.2376 23.5874 21.8304C23.7793 21.4233 23.902 20.9522 23.9546 20.4168C24.053 19.3692 23.8833 18.5626 23.4461 17.9971ZM15.655 12.954C15.7078 12.954 15.8567 12.9521 16.1017 12.9483C16.3468 12.9445 16.5503 12.9407 16.7124 12.9369C16.8745 12.9332 17.0931 12.9426 17.3683 12.9652C17.6435 12.9879 17.8752 13.0181 18.0636 13.0557C18.2521 13.0933 18.4595 13.1555 18.6855 13.2422C18.9118 13.3289 19.0926 13.4344 19.2282 13.5588C19.364 13.6832 19.4789 13.8416 19.573 14.0338C19.6673 14.226 19.7144 14.4465 19.7144 14.6952C19.7144 14.9063 19.6806 15.0986 19.6128 15.2721C19.5452 15.4454 19.4431 15.5906 19.3076 15.7074C19.172 15.8243 19.0323 15.9261 18.8891 16.0128C18.746 16.0994 18.563 16.1692 18.3407 16.2219C18.1184 16.2747 17.9243 16.3161 17.7586 16.3462C17.5927 16.3764 17.3854 16.3972 17.1366 16.4085C16.8878 16.4197 16.6993 16.4274 16.5712 16.4311C16.443 16.4348 16.2678 16.4348 16.0453 16.4311C15.8228 16.4274 15.6929 16.4254 15.6552 16.4254L15.655 12.954ZM20.4101 20.6544C20.3383 20.8279 20.2461 20.9787 20.1331 21.107C20.0199 21.2349 19.8709 21.3481 19.6863 21.446C19.5018 21.5441 19.3225 21.6231 19.1493 21.6834C18.9758 21.744 18.7666 21.7965 18.5218 21.8418C18.2765 21.8871 18.0618 21.919 17.8769 21.9379C17.6923 21.9568 17.4719 21.9718 17.2155 21.9832C16.9593 21.9943 16.7594 22.0001 16.6162 22.0001C16.473 22.0001 16.292 21.998 16.0734 21.9943C15.8547 21.9908 15.7153 21.9889 15.655 21.9889V18.1668C15.7152 18.1668 15.8943 18.1631 16.1921 18.1554C16.49 18.1478 16.7329 18.1443 16.9214 18.1443C17.1099 18.1443 17.37 18.1554 17.7019 18.1782C18.0334 18.2006 18.3123 18.2344 18.5386 18.2797C18.7647 18.325 19.0114 18.3946 19.2792 18.4889C19.5468 18.5831 19.7636 18.698 19.9295 18.8337C20.0954 18.9697 20.2347 19.1428 20.3478 19.3539C20.4611 19.5649 20.5176 19.8062 20.5176 20.0777C20.5176 20.289 20.4818 20.4809 20.4101 20.6544Z" fill="white"/>
</svg>
