<svg width="26" height="16" viewBox="0 0 26 16" fill="none" xmlns="http://www.w3.org/2000/svg">
<path d="M23.8912 0.8162C23.5201 0.523602 23.0776 0.123957 22.2712 0.0240455C21.5147 -0.0758659 20.744 0.430827 20.223 0.766244C19.7021 1.10166 18.7172 2.0865 18.3104 2.38624C17.9037 2.68597 16.8617 2.96429 15.1846 3.97055C13.5076 4.9768 6.92768 9.20162 6.92768 9.20162L8.64045 9.22303L1.00436 13.1553H1.76797L0.668945 13.9902C0.668945 13.9902 1.63951 14.2471 2.45308 13.7333V13.9688C2.45308 13.9688 11.545 10.3863 13.3006 11.314L12.2301 11.628C12.3229 11.628 14.0499 11.7422 14.0499 11.7422C14.0919 12.0999 14.2121 12.4439 14.402 12.7498C14.592 13.0556 14.847 13.3159 15.149 13.5121C16.1909 14.1972 16.2123 14.5754 16.2123 14.5754C16.2123 14.5754 15.6699 14.7967 15.6699 15.075C15.6699 15.075 16.4692 14.8323 17.2114 14.8537C17.6825 14.8716 18.1497 14.9459 18.603 15.075C18.603 15.075 18.5459 14.7752 17.8252 14.5754C17.1044 14.3756 16.3907 13.5906 16.041 13.1624C15.8268 12.8898 15.6872 12.5662 15.6359 12.2234C15.5846 11.8806 15.6234 11.5303 15.7484 11.207C15.9982 10.5576 16.8689 10.2007 18.6673 9.27298C20.7868 8.17396 21.2721 7.3604 21.5718 6.72524C21.8716 6.09009 22.314 4.82693 22.5638 4.2346C22.8778 3.47099 23.2632 3.06421 23.5843 2.82156C23.9055 2.57892 25.3328 2.04368 25.3328 2.04368C25.3328 2.04368 24.2409 1.09452 23.8912 0.8162Z" fill="black"/>
</svg>
