<svg width="22" height="12" viewBox="0 0 22 12" fill="none" xmlns="http://www.w3.org/2000/svg">
<path d="M2.18728 11.0402V2.63628L8.56046 7.43283V11.0402H10.1871V7.09417C10.1868 6.94754 10.1525 6.80298 10.0869 6.67183C10.0214 6.54068 9.92627 6.42651 9.80915 6.33829L2.08015 0.519221C1.93878 0.414222 1.77106 0.350478 1.59564 0.335072C1.42022 0.319667 1.24396 0.353204 1.08646 0.431957C0.928954 0.51071 0.79637 0.631594 0.703442 0.781174C0.610513 0.930754 0.56088 1.10317 0.560059 1.27927V11.0402H2.18728ZM19.8129 11.0402V2.63628L13.4397 7.43283V11.0402H11.8131V7.09417C11.8134 6.94754 11.8477 6.80298 11.9133 6.67183C11.9789 6.54068 12.0739 6.42651 12.1911 6.33829L19.9201 0.521603C20.0613 0.41672 20.2288 0.352995 20.404 0.337496C20.5792 0.321997 20.7553 0.355328 20.9127 0.433794C21.0701 0.51226 21.2027 0.632795 21.2958 0.782031C21.3889 0.931267 21.4389 1.10337 21.4401 1.27927V11.0402H19.8129Z" fill="white"/>
</svg>
