<svg width="23" height="18" viewBox="0 0 23 18" fill="none" xmlns="http://www.w3.org/2000/svg">
<path fill-rule="evenodd" clip-rule="evenodd" d="M8.9043 7.48492L11.4721 13.1433L15.2939 10.9542L15.2968 10.9531V6.57153L8.9043 7.48492Z" fill="#EDEDED"/>
<path fill-rule="evenodd" clip-rule="evenodd" d="M20.2415 3.28648L17.856 2.39371L15.3066 2.18909V15.8053L19.1313 17.9956L22.1501 11.857L20.2461 5.92136L20.2415 3.28648Z" fill="white"/>
<path fill-rule="evenodd" clip-rule="evenodd" d="M20.0017 2.1936L19.1159 4.38325H19.1147V17.9978L22.94 15.8082V2.1936H20.0017Z" fill="#EDEDED"/>
<path fill-rule="evenodd" clip-rule="evenodd" d="M19.1319 0L15.3066 2.19136L19.1319 4.38215L22.9571 2.19136L19.1319 0Z" fill="#B8B8B8"/>
<path fill-rule="evenodd" clip-rule="evenodd" d="M11.4746 8.76089V8.75976L7.64994 4.50734L0 2.18909V15.8036L3.8241 17.9944L4.91702 10.4601L7.64994 10.9534V10.9511L11.4752 13.1413L11.4746 8.76089Z" fill="white"/>
<path fill-rule="evenodd" clip-rule="evenodd" d="M3.8264 0L0 2.19079L11.4734 8.76487L13.2072 7.77209L15.2981 6.57353L3.8264 0Z" fill="#B8B8B8"/>
<path fill-rule="evenodd" clip-rule="evenodd" d="M3.82723 8.76062L3.82666 17.9936L7.6519 15.8034V10.9514L3.82723 8.76062Z" fill="#EDEDED"/>
</svg>
