<svg width="22" height="11" viewBox="0 0 22 11" fill="none" xmlns="http://www.w3.org/2000/svg">
<path d="M4.14842 1.11681V3.41149C4.14847 3.47186 4.13661 3.53164 4.11353 3.58742C4.09044 3.6432 4.05659 3.69388 4.01391 3.73656C3.97122 3.77925 3.92054 3.8131 3.86476 3.83618C3.80899 3.85926 3.7492 3.87112 3.68884 3.87108H1.39415C1.33379 3.87112 1.27401 3.85926 1.21823 3.83618C1.16245 3.8131 1.11177 3.77925 1.06908 3.73656C1.0264 3.69388 0.992549 3.6432 0.969468 3.58742C0.946387 3.53164 0.934528 3.47186 0.93457 3.41149V1.11681C0.934528 1.05644 0.946387 0.996663 0.969468 0.940884C0.992549 0.885106 1.0264 0.834425 1.06908 0.79174C1.11177 0.749055 1.16245 0.715204 1.21823 0.692123C1.27401 0.669042 1.33379 0.657184 1.39415 0.657227H3.68884C3.7492 0.657184 3.80899 0.669042 3.86476 0.692123C3.92054 0.715204 3.97122 0.749055 4.01391 0.79174C4.05659 0.834425 4.09044 0.885106 4.11353 0.940884C4.13661 0.996663 4.14847 1.05644 4.14842 1.11681V1.11681ZM7.33962 4.19473H5.04493C4.98457 4.19469 4.92479 4.20655 4.86901 4.22963C4.81323 4.25271 4.76255 4.28656 4.71986 4.32924C4.67718 4.37193 4.64333 4.42261 4.62025 4.47839C4.59717 4.53417 4.58531 4.59395 4.58535 4.65431V10.1758C4.58531 10.2362 4.59717 10.2959 4.62025 10.3517C4.64333 10.4075 4.67718 10.4582 4.71986 10.5009C4.76255 10.5436 4.81323 10.5774 4.86901 10.6005C4.92479 10.6236 4.98457 10.6354 5.04493 10.6354H7.33962C7.39998 10.6354 7.45977 10.6236 7.51554 10.6005C7.57132 10.5774 7.622 10.5436 7.66469 10.5009C7.70737 10.4582 7.74122 10.4075 7.76431 10.3517C7.78739 10.2959 7.79925 10.2362 7.7992 10.1758V4.65431C7.79925 4.59395 7.78739 4.53417 7.76431 4.47839C7.74122 4.42261 7.70737 4.37193 7.66469 4.32924C7.622 4.28656 7.57132 4.25271 7.51554 4.22963C7.45977 4.20655 7.39998 4.19469 7.33962 4.19473V4.19473ZM14.1751 4.19473H12.4436C12.2816 4.19477 12.1213 4.1629 11.9717 4.10095C11.822 4.039 11.6861 3.94817 11.5716 3.83365C11.457 3.71914 11.3662 3.58319 11.3043 3.43356C11.2423 3.28393 11.2104 3.12357 11.2105 2.96162V1.11681C11.2105 1.05644 11.1987 0.996663 11.1756 0.940884C11.1525 0.885106 11.1187 0.834425 11.076 0.79174C11.0333 0.749055 10.9826 0.715204 10.9268 0.692123C10.871 0.669042 10.8113 0.657184 10.7509 0.657227H8.45621C8.39585 0.657184 8.33607 0.669042 8.28029 0.692123C8.22451 0.715204 8.17383 0.749055 8.13114 0.79174C8.08846 0.834425 8.05461 0.885106 8.03153 0.940884C8.00845 0.996663 7.99659 1.05644 7.99663 1.11681V3.41149C7.99659 3.47186 8.00845 3.53164 8.03153 3.58742C8.05461 3.6432 8.08846 3.69388 8.13114 3.73656C8.17383 3.77925 8.22451 3.8131 8.28029 3.83618C8.33607 3.85926 8.39585 3.87112 8.45621 3.87108H9.29771C9.34382 3.86462 9.39032 3.86138 9.43688 3.86137H10.1877C10.3497 3.86133 10.5101 3.89319 10.6597 3.95515C10.8093 4.0171 10.9453 4.10793 11.0598 4.22244C11.1743 4.33696 11.2651 4.47291 11.3271 4.62254C11.389 4.77216 11.4209 4.93253 11.4209 5.09448V10.1726C11.4208 10.2329 11.4327 10.2927 11.4558 10.3485C11.4788 10.4043 11.5127 10.4549 11.5554 10.4976C11.5981 10.5403 11.6487 10.5742 11.7045 10.5972C11.7603 10.6203 11.8201 10.6322 11.8804 10.6321H14.1751C14.2355 10.6322 14.2953 10.6203 14.351 10.5972C14.4068 10.5742 14.4575 10.5403 14.5002 10.4976C14.5429 10.4549 14.5767 10.4043 14.5998 10.3485C14.6229 10.2927 14.6348 10.2329 14.6347 10.1726V4.65431C14.6348 4.59395 14.6229 4.53417 14.5998 4.47839C14.5767 4.42261 14.5429 4.37193 14.5002 4.32924C14.4575 4.28656 14.4068 4.25271 14.351 4.22963C14.2953 4.20655 14.2355 4.19469 14.1751 4.19473V4.19473ZM20.8197 4.19473H19.0881C18.9262 4.19477 18.7658 4.1629 18.6162 4.10095C18.4666 4.039 18.3306 3.94817 18.2161 3.83365C18.1016 3.71914 18.0108 3.58319 17.9488 3.43356C17.8869 3.28393 17.855 3.12357 17.855 2.96162V1.11681C17.8551 1.05644 17.8432 0.996663 17.8201 0.940884C17.7971 0.885106 17.7632 0.834425 17.7205 0.79174C17.6778 0.749055 17.6272 0.715204 17.5714 0.692123C17.5156 0.669042 17.4558 0.657184 17.3954 0.657227H15.0975C15.0372 0.657184 14.9774 0.669042 14.9216 0.692123C14.8658 0.715204 14.8151 0.749055 14.7725 0.79174C14.7298 0.834425 14.6959 0.885106 14.6728 0.940884C14.6498 0.996663 14.6379 1.05644 14.6379 1.11681V3.41149C14.6379 3.47186 14.6498 3.53164 14.6728 3.58742C14.6959 3.6432 14.7298 3.69388 14.7725 3.73656C14.8151 3.77925 14.8658 3.8131 14.9216 3.83618C14.9774 3.85926 15.0372 3.87112 15.0975 3.87108H15.939C15.9851 3.86462 16.0316 3.86138 16.0782 3.86137H16.8291C16.991 3.86133 17.1514 3.89319 17.301 3.95515C17.4506 4.0171 17.5866 4.10793 17.7011 4.22244C17.8156 4.33696 17.9064 4.47291 17.9684 4.62254C18.0303 4.77216 18.0622 4.93253 18.0622 5.09448V10.1726C18.0621 10.2329 18.074 10.2927 18.0971 10.3485C18.1201 10.4043 18.154 10.4549 18.1967 10.4976C18.2394 10.5403 18.29 10.5742 18.3458 10.5972C18.4016 10.6203 18.4614 10.6322 18.5218 10.6321H20.8164C20.8768 10.6322 20.9366 10.6203 20.9924 10.5972C21.0481 10.5742 21.0988 10.5403 21.1415 10.4976C21.1842 10.4549 21.218 10.4043 21.2411 10.3485C21.2642 10.2927 21.2761 10.2329 21.276 10.1726V4.65431C21.2769 4.59399 21.2657 4.53411 21.2431 4.47817C21.2205 4.42224 21.187 4.37137 21.1445 4.32856C21.102 4.28576 21.0514 4.25187 20.9956 4.22889C20.9398 4.20591 20.88 4.19429 20.8197 4.19473V4.19473Z" fill="#231F20"/>
</svg>
