<svg width="28" height="29" viewBox="0 0 28 29" fill="none" xmlns="http://www.w3.org/2000/svg">
<path fill-rule="evenodd" clip-rule="evenodd" d="M27.9501 14.7975C27.9501 15.8198 27.8402 16.8163 27.6314 17.7761C27.8391 16.8163 27.9475 15.8197 27.9493 14.7973C27.9496 14.6309 27.9469 14.4652 27.9414 14.3002C27.9472 14.4653 27.9501 14.6311 27.9501 14.7975ZM27.9414 14.3002C27.7881 9.71762 25.4143 5.69701 21.8631 3.2724C25.4105 5.69739 27.7809 9.71765 27.9414 14.3002ZM21.8631 3.2724C19.6232 1.74314 16.915 0.848781 14 0.848781L14 0.846924C16.9167 0.846924 19.6243 1.74197 21.8631 3.2724ZM27.2402 19.2031H23.0662V7.4673L14 16.5339L4.93325 7.4673V19.2029H0.759613C0.699924 19.0234 0.643782 18.8423 0.591271 18.6596C0.239185 17.4328 0.0529698 16.1371 0.0512888 14.7971C0.050681 14.3201 0.0741486 13.8486 0.120544 13.3839C0.36128 10.9916 1.20639 8.77761 2.5009 6.89694C5.01682 3.2449 9.23039 0.847506 13.9982 0.846924C9.22715 0.847506 5.01589 3.24316 2.5009 6.89694C1.2048 8.77833 0.359237 10.9927 0.120544 13.3839C0.0737634 13.8487 0.0498047 14.3203 0.0498047 14.7975C0.0498047 16.1374 0.238683 17.4331 0.591271 18.6596C0.643689 18.8422 0.699783 19.0234 0.759493 19.2029H0.759613C1.09325 20.2062 1.53773 21.1589 2.07854 22.0465H2.07837C2.23821 22.3087 2.40649 22.5653 2.5828 22.8158C2.40655 22.5653 2.23834 22.3087 2.07854 22.0465L4.93295 22.0459H7.95808V14.6613L11.9149 18.6183H11.915L13.9995 20.7027L16.0839 18.6183L20.0409 14.6613V22.0459H25.9217C25.6621 22.472 25.3803 22.8831 25.0779 23.2775C24.1467 24.4917 23.0202 25.5489 21.7456 26.4019C19.5298 27.8839 16.8659 28.748 14 28.748C9.32275 28.748 5.18347 26.4464 2.65256 22.9141C5.18382 26.4458 9.32479 28.7509 14 28.7509C16.8648 28.7509 19.5292 27.8851 21.7456 26.4019C23.0204 25.5493 24.1468 24.4922 25.0779 23.2775C25.3805 22.883 25.6625 22.4719 25.9222 22.0459H25.9217C26.4623 21.1585 26.9067 20.2061 27.2402 19.2031ZM27.2402 19.2031C27.395 18.7378 27.5258 18.2617 27.6314 17.7761C27.5264 18.2616 27.3959 18.7378 27.2409 19.2031H27.2402Z" fill="white"/>
</svg>
