<svg width="15" height="17" viewBox="0 0 15 17" fill="none" xmlns="http://www.w3.org/2000/svg">
<path d="M7.68203 0.0683594C5.3963 0.0683594 3.52783 1.93683 3.52783 4.22256C3.52783 6.50829 5.3963 8.37676 7.68203 8.37676C9.96776 8.37676 11.8362 6.50829 11.8362 4.22256C11.8362 1.93683 9.96776 0.0683594 7.68203 0.0683594Z" fill="#A5ABDD"/>
<path d="M14.8128 11.6964C14.704 11.4243 14.5589 11.1703 14.3956 10.9345C13.5611 9.70089 12.2732 8.88457 10.8219 8.68502C10.6405 8.6669 10.441 8.70315 10.2958 8.812C9.53392 9.37437 8.62691 9.66461 7.68358 9.66461C6.74024 9.66461 5.83323 9.37437 5.07132 8.812C4.92618 8.70315 4.72663 8.64874 4.54524 8.68502C3.09399 8.88457 1.78788 9.70089 0.971563 10.9345C0.808299 11.1703 0.663161 11.4424 0.554341 11.6964C0.499931 11.8052 0.518056 11.9322 0.572466 12.0411C0.717605 12.295 0.898994 12.549 1.06226 12.7667C1.31622 13.1114 1.58833 13.4197 1.89674 13.71C2.1507 13.9639 2.44094 14.1998 2.73122 14.4356C4.16431 15.5059 5.88767 16.0683 7.66545 16.0683C9.44323 16.0683 11.1666 15.5059 12.5997 14.4356C12.8899 14.2179 13.1802 13.9639 13.4342 13.71C13.7244 13.4197 14.0147 13.1113 14.2686 12.7667C14.45 12.5309 14.6133 12.295 14.7584 12.0411C14.8491 11.9322 14.8672 11.8052 14.8128 11.6964Z" fill="#A5ABDD"/>
</svg>
