<svg width="9" height="18" viewBox="0 0 9 18" fill="none" xmlns="http://www.w3.org/2000/svg">
<path d="M6.78741 8.60628C6.11874 8.23675 5.40784 7.95521 4.70397 7.6631C4.29573 7.49417 3.90509 7.29709 3.56019 7.02259C2.88096 6.48061 3.01118 5.60078 3.80655 5.25237C4.03178 5.15382 4.26758 5.12215 4.50689 5.10807C5.42895 5.0588 6.30527 5.22773 7.13934 5.62893C7.55463 5.82953 7.69188 5.76619 7.83265 5.33331C7.98046 4.8758 8.10364 4.41125 8.24089 3.95021C8.3324 3.64051 8.21978 3.43639 7.92767 3.30618C7.39274 3.07038 6.84372 2.90146 6.26655 2.80995C5.51342 2.69382 5.51342 2.6903 5.5099 1.93364C5.50638 0.867287 5.50638 0.867287 4.4365 0.867287C4.28165 0.867287 4.1268 0.863767 3.97195 0.867287C3.47221 0.881364 3.38775 0.969347 3.37367 1.47261C3.36663 1.69785 3.37367 1.92308 3.37015 2.15184C3.36663 2.82051 3.36311 2.80995 2.72259 3.04223C1.17409 3.60532 0.216835 4.66112 0.114774 6.35039C0.0232719 7.84611 0.804562 8.85615 2.03281 9.59169C2.78946 10.0457 3.62706 10.3132 4.42947 10.6686C4.74269 10.8059 5.04183 10.9642 5.30226 11.1824C6.07299 11.8194 5.93222 12.8787 5.01719 13.2799C4.52801 13.4946 4.01067 13.5474 3.47925 13.4805C2.65925 13.3785 1.87444 13.1638 1.13538 12.7802C0.702502 12.555 0.575806 12.6148 0.427994 13.0829C0.301298 13.4876 0.18868 13.8958 0.0760618 14.3041C-0.0752691 14.8531 -0.0189603 14.9833 0.505419 15.2402C1.17409 15.564 1.88851 15.7294 2.61701 15.8455C3.18714 15.937 3.20474 15.9617 3.21178 16.5529C3.2153 16.8204 3.2153 17.0914 3.21882 17.3588C3.22234 17.6967 3.38423 17.8938 3.73264 17.9008C4.1268 17.9079 4.52449 17.9079 4.91865 17.8973C5.24243 17.8903 5.40784 17.7143 5.40784 17.387C5.40784 17.021 5.42543 16.6515 5.41136 16.2854C5.39376 15.9124 5.55565 15.7224 5.91462 15.6238C6.74166 15.3986 7.44553 14.9551 7.9875 14.2935C9.49377 12.4635 8.92012 9.78526 6.78741 8.60628Z" fill="white"/>
</svg>
