<svg width="61" height="38" viewBox="0 0 61 38" fill="none" xmlns="http://www.w3.org/2000/svg">
<path opacity="0.5" d="M7.59127 18.4356L3.23605 5.90849C2.86595 4.84395 1.2915 5.10983 1.2915 6.23687V36.4871C1.2915 37.0394 1.73922 37.4871 2.2915 37.4871H58.9479C59.5002 37.4871 59.9479 37.0394 59.9479 36.4871V13.8284C59.9479 12.9809 58.9598 12.5176 58.3084 13.0596L56.2759 14.7507C55.9536 15.0189 55.4982 15.0575 55.1354 14.8475L50.1612 11.9685C49.8672 11.7983 49.5069 11.789 49.2045 11.9438L43.2516 14.9918C42.9967 15.1223 42.698 15.1373 42.4313 15.0329L38.9049 13.6522C38.5786 13.5244 38.2092 13.5768 37.9313 13.7902L32.1743 18.2117C31.8035 18.4964 31.285 18.4863 30.9256 18.1873L28.3036 16.0057C27.8075 15.5929 27.056 15.7513 26.7686 16.3292L23.901 22.0951C23.5568 22.7873 22.5908 22.8438 22.1683 22.1964L18.281 16.2413C17.9313 15.7055 17.1752 15.6314 16.7282 16.0892L14.9246 17.9361C14.5212 18.3492 13.8529 18.3358 13.4664 17.907L12.0272 16.3105C11.5496 15.7806 10.6867 15.9069 10.3809 16.5513L9.43927 18.5359C9.05574 19.3442 7.88506 19.2807 7.59127 18.4356Z" fill="url(#paint0_linear)"/>
<path d="M1.2915 0.315308L7.59127 18.4356C7.88506 19.2807 9.05574 19.3442 9.43927 18.5359L10.3809 16.5513C10.6867 15.9069 11.5496 15.7806 12.0272 16.3105L13.4664 17.907C13.8529 18.3358 14.5212 18.3492 14.9246 17.9361L16.7282 16.0892C17.1752 15.6314 17.9313 15.7055 18.281 16.2413L22.1683 22.1964C22.5908 22.8438 23.5568 22.7873 23.901 22.0951L26.7686 16.3292C27.056 15.7513 27.8075 15.5929 28.3036 16.0057L30.9256 18.1873C31.285 18.4863 31.8035 18.4964 32.1743 18.2117L37.9313 13.7902C38.2092 13.5768 38.5786 13.5244 38.9049 13.6522L42.4313 15.0329C42.698 15.1373 42.9967 15.1223 43.2516 14.9918L49.2045 11.9438C49.5069 11.789 49.8672 11.7983 50.1612 11.9685L55.1354 14.8475C55.4982 15.0575 55.9536 15.0189 56.2759 14.7507L59.9479 11.6955" stroke="#F03737"/>
<defs>
<linearGradient id="paint0_linear" x1="30.6197" y1="0.315308" x2="30.6197" y2="37.4871" gradientUnits="userSpaceOnUse">
<stop stop-color="#F03737"/>
<stop offset="1" stop-color="#F03737" stop-opacity="0"/>
</linearGradient>
</defs>
</svg>
