<svg width="10" height="17" viewBox="0 0 10 17" fill="none" xmlns="http://www.w3.org/2000/svg">
<path d="M4.88158 0.845733L1.04431 5.66724C0.658094 6.16559 1.00694 6.91311 1.64233 6.91311L2.92557 6.91311C3.33671 6.91311 3.69801 7.1872 3.69801 7.59833L3.69801 15.2604C3.69801 15.6716 3.99702 16.0079 4.42061 16.0079L6.43892 16.0079C6.83759 16.0079 7.18644 15.6716 7.18644 15.2604L7.18644 7.59833C7.18644 7.1872 7.51049 6.91311 7.9215 6.91311L9.20474 6.91311C9.82767 6.91311 10.1765 6.16559 9.7903 5.6797L6.0527 0.87065C5.76615 0.471973 5.18059 0.459515 4.88158 0.845733Z" fill="#BED8FF"/>
</svg>
