<svg width="59" height="59" viewBox="0 0 59 59" fill="none" xmlns="http://www.w3.org/2000/svg">
<rect x="0.317383" y="0.723755" width="57.7" height="57.7" rx="15" fill="#46CCA7"/>
<path fill-rule="evenodd" clip-rule="evenodd" d="M31.6451 30.9013C31.4973 30.9124 30.734 30.958 29.0314 30.958C27.6772 30.958 26.7157 30.9173 26.3783 30.9013C21.1448 30.6705 17.2385 29.7576 17.2385 28.6645C17.2385 27.5714 21.1448 26.6596 26.3783 26.4252V29.992C26.7206 30.0167 27.7006 30.0746 29.0548 30.0746C30.6799 30.0746 31.4936 30.0068 31.6401 29.9932V26.4277C36.8625 26.6609 40.7603 27.5738 40.7603 28.6645C40.7603 29.7551 36.8638 30.6681 31.6401 30.9L31.6451 30.9013ZM31.6451 26.0588V22.8671H38.9333V18H19.0901V22.8671H26.3771V26.0576C20.4542 26.3302 16 27.506 16 28.9149C16 30.3239 20.4542 31.4984 26.3771 31.7723V42H31.6438V31.7686C37.5532 31.4959 42 30.3214 42 28.9137C42 27.506 37.5569 26.3315 31.6438 26.0576L31.6451 26.0588Z" fill="white"/>
</svg>
