<svg width="59" height="59" viewBox="0 0 59 59" fill="none" xmlns="http://www.w3.org/2000/svg">
<rect x="0.817383" y="0.621948" width="57.7" height="57.7" rx="15" fill="#45A553"/>
<path d="M39.5714 30.2047C38.88 29.3107 37.8368 28.6967 36.4418 28.363C38.2183 27.4568 38.999 25.9188 38.7847 23.7487C38.713 22.9618 38.4955 22.2798 38.1317 21.7018C37.7677 21.1236 37.2764 20.6587 36.6561 20.3071C36.0362 19.955 35.362 19.687 34.6351 19.5022C33.908 19.3174 33.0733 19.1833 32.1314 19.0999V14.5933H29.3776V18.9747C28.9008 18.9747 28.1735 18.9866 27.196 19.0104V14.5933H24.4419V19.0999C24.0483 19.1118 23.4702 19.1179 22.7072 19.1179L18.916 19.0999V22.0328H20.9009C21.807 22.0328 22.3376 22.4383 22.4925 23.2488V28.3815C22.6119 28.3815 22.7072 28.3876 22.7788 28.3995H22.4925V35.5883C22.3973 36.1962 22.0516 36.5004 21.4554 36.5004H19.4706L18.9161 39.7732H22.4928C22.7194 39.7732 23.0471 39.7762 23.4764 39.7815C23.9056 39.7876 24.2273 39.7906 24.442 39.7906V44.3507H27.1966V39.8442C27.6972 39.8564 28.4244 39.8622 29.3782 39.8622V44.3507H32.132V39.7906C33.1098 39.743 33.9771 39.654 34.7338 39.5224C35.4909 39.3908 36.2154 39.1855 36.9067 38.9051C37.598 38.6251 38.1761 38.2762 38.641 37.8589C39.1062 37.442 39.4903 36.9112 39.7949 36.2673C40.0984 35.6234 40.2924 34.8782 40.3756 34.0316C40.5312 32.3748 40.2628 31.099 39.5714 30.2047ZM27.2496 22.229C27.3331 22.229 27.5685 22.226 27.956 22.22C28.3437 22.2138 28.6654 22.2079 28.9217 22.2019C29.1781 22.196 29.5239 22.2109 29.9592 22.2467C30.3943 22.2825 30.7609 22.3303 31.0589 22.3898C31.3568 22.4493 31.685 22.5477 32.0423 22.6848C32.4003 22.8218 32.6862 22.9888 32.9006 23.1855C33.1154 23.3821 33.2971 23.6326 33.4459 23.9367C33.5951 24.2406 33.6696 24.5893 33.6696 24.9827C33.6696 25.3166 33.6161 25.6207 33.5089 25.895C33.4019 26.1692 33.2406 26.3987 33.0262 26.5835C32.8118 26.7684 32.5908 26.9295 32.3643 27.0665C32.138 27.2034 31.8486 27.3138 31.497 27.3972C31.1455 27.4807 30.8385 27.5463 30.5764 27.5939C30.314 27.6416 29.9863 27.6745 29.5928 27.6923C29.1992 27.71 28.9011 27.7222 28.6985 27.7281C28.4957 27.734 28.2186 27.734 27.8668 27.7281C27.5149 27.7222 27.3095 27.7191 27.2498 27.7191V22.2289H27.2496V22.229ZM34.7698 34.4073C34.6562 34.6817 34.5104 34.9203 34.3317 35.1231C34.1527 35.3254 33.9171 35.5044 33.6252 35.6592C33.3333 35.8144 33.0498 35.9394 32.7759 36.0348C32.5015 36.1305 32.1705 36.2135 31.7834 36.2853C31.3955 36.3569 31.0559 36.4073 30.7635 36.4373C30.4716 36.4672 30.123 36.4909 29.7175 36.5089C29.3123 36.5265 28.9962 36.5356 28.7697 36.5356C28.5432 36.5356 28.257 36.5323 27.9112 36.5265C27.5653 36.5209 27.3449 36.5179 27.2495 36.5179V30.4731C27.3447 30.4731 27.6279 30.4673 28.0989 30.4551C28.57 30.4431 28.9543 30.4375 29.2524 30.4375C29.5504 30.4375 29.9619 30.4551 30.4867 30.4911C31.0109 30.5267 31.4521 30.5801 31.8101 30.6516C32.1676 30.7233 32.5578 30.8334 32.9813 30.9826C33.4044 31.1315 33.7474 31.3133 34.0098 31.5279C34.2721 31.7429 34.4925 32.0167 34.6713 32.3506C34.8505 32.6843 34.9399 33.0659 34.9399 33.4952C34.9398 33.8294 34.8832 34.1329 34.7698 34.4073Z" fill="white"/>
</svg>
