<svg width="19" height="18" viewBox="0 0 19 18" fill="none" xmlns="http://www.w3.org/2000/svg">
<path d="M6.08916 0.0878565C6.10444 0.0939685 6.1136 0.106193 6.11055 0.121473C6.11055 0.152033 6.11055 0.179537 6.11055 0.210097V11.0008C6.11055 11.0375 6.10749 11.0711 6.10749 11.1078C6.12277 11.1384 6.15028 11.1231 6.16861 11.1231C8.10612 11.1231 10.0436 11.1231 11.9842 11.1261C12.0453 11.1261 12.0728 11.1109 12.0636 11.0467C12.0636 11.0253 12.0636 11.007 12.0636 10.9856C12.0636 7.3917 12.0636 3.8009 12.0636 0.207041C12.0636 0.170369 12.0422 0.121473 12.0881 0.0939685C12.1034 0.0817445 12.1278 0.0848005 12.14 0.100081C12.14 0.100081 12.14 0.103137 12.1431 0.103137C12.1584 0.124529 12.1737 0.145921 12.1859 0.170369C12.4059 0.607377 12.6321 1.04744 12.849 1.48445C13.0293 1.85117 13.2127 2.21789 13.393 2.58155C13.5947 2.98495 13.7995 3.3914 14.0011 3.79479C14.1845 4.15845 14.3648 4.52517 14.5451 4.88884C14.7071 5.21889 14.8752 5.54282 15.0341 5.87287C15.0585 5.92177 15.0952 5.96149 15.1105 6.01345C15.1196 6.07457 15.1196 6.13874 15.1166 6.19986V16.7125C15.1166 16.7431 15.1166 16.7706 15.1166 16.8011C15.1166 16.9173 15.1166 16.9173 15.2297 16.9387C15.2449 16.9417 15.2572 16.9478 15.2694 16.9601C15.193 16.9967 15.1135 17.0089 15.031 17.0273C14.6704 17.1129 14.3067 17.1679 13.937 17.1954C13.7658 17.2076 13.5947 17.2106 13.4236 17.2137C12.5404 17.229 11.6541 17.2229 10.771 17.2229C9.23684 17.2229 7.69967 17.2229 6.1625 17.2198C6.13194 17.2198 6.09832 17.229 6.06776 17.2106C6.07693 17.2045 6.0861 17.1954 6.09832 17.1923C6.15333 17.1801 6.20834 17.177 6.2664 17.1801H11.8864C11.9353 17.1831 11.9872 17.1801 12.0361 17.174C12.082 17.1526 12.0636 17.1129 12.0667 17.0792C12.0667 15.8324 12.0667 14.5825 12.0667 13.3356V11.3828C12.0636 11.3431 12.0667 11.3034 12.0698 11.2637C12.0239 11.4073 11.9475 11.5418 11.8803 11.6793C11.6327 12.1957 11.3913 12.7153 11.1438 13.2348C11.0093 13.519 10.8749 13.8001 10.7404 14.0844C10.7221 14.1241 10.7037 14.1669 10.6609 14.1883C10.6182 14.2005 10.5723 14.2035 10.5295 14.2005H7.63855C7.59882 14.2035 7.56215 14.2005 7.52242 14.1913C7.46436 14.173 7.44602 14.121 7.42463 14.0721C7.25655 13.7146 7.08541 13.357 6.91733 12.9964C6.73397 12.6083 6.55061 12.2232 6.36725 11.8351C6.27863 11.6518 6.19612 11.4654 6.09832 11.2728C6.09832 11.3248 6.09832 11.3676 6.09832 11.4103C6.09832 13.2867 6.09832 15.1601 6.09832 17.0365C6.09832 17.0945 6.1136 17.1556 6.07082 17.2076C6.04026 17.2076 6.01276 17.2137 5.9822 17.2137C5.54519 17.2137 5.10818 17.2137 4.67117 17.2137C4.5581 17.2137 4.44808 17.2076 4.33501 17.2045C4.31362 17.2045 4.29223 17.2076 4.27695 17.1923C4.29834 17.174 4.32279 17.1831 4.34418 17.1831C4.87898 17.1831 5.41378 17.1831 5.94858 17.1831C5.96997 17.1831 5.98831 17.1801 5.99442 17.1831C5.46267 17.1831 4.91871 17.1831 4.37168 17.1831C4.34112 17.1831 4.30751 17.1709 4.27695 17.1954C4.14248 17.2015 4.00496 17.1831 3.8705 17.1679C3.60768 17.1434 3.35098 17.0884 3.09427 17.0456C3.0851 17.0426 3.07899 17.0395 3.06982 17.0334C3.10038 16.9662 3.09733 16.8959 3.09733 16.8256C3.09733 13.299 3.09733 9.77233 3.09733 6.2457C3.09427 6.18458 3.09733 6.12041 3.10344 6.05929C3.11872 5.99511 3.14317 5.93399 3.17373 5.87898C3.35709 5.51532 3.54045 5.15165 3.72075 4.78493C4.38696 3.4189 5.07456 2.06509 5.74994 0.705169C5.83551 0.534033 5.92108 0.369009 6.00359 0.197873C6.01581 0.170369 6.02498 0.112305 6.07999 0.161201C6.07999 3.53503 6.07999 6.90886 6.07999 10.2827C6.07999 10.5455 6.07999 10.8083 6.07999 11.0742C6.07999 7.46505 6.07999 3.85896 6.07999 0.249825C6.07693 0.191761 6.0586 0.139809 6.08916 0.0878565Z" fill="#E85C50"/>
<path d="M3.12124 6.01959C3.12124 9.64401 3.12124 13.2684 3.12124 16.8898C3.12124 16.9204 3.12124 16.9479 3.12124 16.9784C3.1243 17.0212 3.0968 17.0273 3.06624 17.0304C2.62923 16.9295 2.20444 16.7951 1.80716 16.5903C1.58713 16.4772 1.37321 16.3581 1.18374 16.2022C0.658105 15.7713 0.291385 15.2426 0.211929 14.5489C0.211929 14.5244 0.211929 14.5031 0.211929 14.4786C0.202761 14.448 0.199705 14.4144 0.205817 14.3808C0.205817 9.67763 0.205817 4.97749 0.205817 0.274306C0.202761 0.24069 0.205817 0.21013 0.211929 0.176514C0.254713 0.17957 0.263881 0.216242 0.276105 0.243746C0.438073 0.573794 0.600041 0.900786 0.765065 1.22778C0.963705 1.622 1.16235 2.01317 1.35793 2.41045C1.54129 2.77717 1.72771 3.14389 1.90801 3.51367C2.02108 3.74593 2.14027 3.97513 2.25334 4.20433C2.3603 4.41519 2.46726 4.62605 2.57116 4.83997C2.6934 5.09668 2.82176 5.35033 2.95316 5.60092C3.01123 5.70788 3.05401 5.82095 3.10902 5.93097C3.12736 5.95542 3.13041 5.98903 3.12124 6.01959Z" fill="#CF3339"/>
<path d="M15.2693 16.9602C15.2265 16.9572 15.1868 16.9633 15.1471 16.9755C15.1134 16.9816 15.089 16.9725 15.089 16.9297C15.089 16.9083 15.089 16.89 15.089 16.8686V5.98614C15.0615 5.93724 15.0982 5.90057 15.1165 5.8639C15.4099 5.29242 15.7002 4.71789 15.9875 4.14031C15.9936 4.12809 16.0027 4.11281 16.0119 4.10058C16.015 4.09447 16.018 4.08836 16.0211 4.08225C16.0272 4.07308 16.0302 4.06391 16.0364 4.05474C16.0425 4.04557 16.0425 4.04252 16.0455 4.03641C16.0547 4.01807 16.0639 3.99668 16.073 3.97834C16.0761 3.97223 16.0822 3.96306 16.0852 3.95695C16.238 3.66968 16.3786 3.37631 16.5253 3.08293C16.6048 2.93013 16.6781 2.77733 16.7545 2.62148C16.8248 2.48396 16.892 2.34949 16.9593 2.21197C16.9654 2.2028 16.9684 2.19364 16.9745 2.18752C17.2007 1.74746 17.4146 1.30128 17.6408 0.864274C17.7355 0.683969 17.8272 0.500609 17.9219 0.320305C17.9372 0.286689 17.9494 0.246961 17.9983 0.237793C18.0166 0.274465 18.0075 0.311137 18.0075 0.347809C18.0075 3.141 18.0075 5.93418 18.0075 8.72431C18.0075 10.5793 18.0075 12.4343 18.0075 14.2893C18.0105 14.326 18.0105 14.3596 18.0014 14.3963C18.0136 14.5246 17.9647 14.6407 17.9341 14.7599C17.8363 15.1389 17.6285 15.4536 17.3718 15.7409C17.1793 15.964 16.9562 16.1626 16.7087 16.3246C16.397 16.5293 16.0608 16.6974 15.7094 16.8258C15.5688 16.8747 15.419 16.9236 15.2693 16.9602Z" fill="#CF3339"/>
<path d="M3.12164 6.01887C3.11553 5.98831 3.10636 5.96081 3.08803 5.93636C3.00551 5.76217 2.91383 5.59409 2.83438 5.4199C2.75492 5.25182 2.65713 5.09291 2.58379 4.92177C2.51655 4.76286 2.42182 4.61923 2.35459 4.46337C2.26902 4.26473 2.14983 4.08442 2.07038 3.88273C2.03982 3.80327 1.98786 3.73298 1.95119 3.65658C1.89313 3.54046 1.84729 3.41822 1.78311 3.30514C1.65782 3.08511 1.55697 2.8498 1.44084 2.62671C1.36444 2.48002 1.28498 2.33639 1.21775 2.18359C1.14441 2.01857 1.04662 1.86577 0.976328 1.70074C0.89076 1.49905 0.771575 1.31569 0.686007 1.11399C0.646279 1.0162 0.582103 0.927574 0.539319 0.829781C0.441527 0.615861 0.316231 0.414165 0.209271 0.197189V14.3709C0.209271 14.4076 0.209271 14.4412 0.209271 14.4779C0.178711 14.3801 0.187879 14.2793 0.187879 14.1784C0.184823 12.9254 0.184823 11.6694 0.187879 10.4165V0.353045C0.190935 0.264421 0.187879 0.175797 0.178711 0.0871727C0.206215 0.0780047 0.236775 0.0749487 0.264279 0.0810607C2.16817 0.0810607 4.07511 0.0810607 5.979 0.0810607H6.03096C6.09513 0.0810607 6.07068 0.114677 6.05235 0.142181L4.89412 2.44946C4.6527 2.93231 4.41127 3.4121 4.17291 3.89495C4.08428 4.0722 4.00177 4.2525 3.91315 4.42975C3.66867 4.91871 3.42419 5.40767 3.17971 5.89663L3.12164 6.01887Z" fill="#E33936"/>
<path d="M16.0116 4.12179C16.0086 4.14624 15.9994 4.16763 15.9872 4.18597C15.7946 4.57408 15.6021 4.96525 15.4035 5.35031C15.3087 5.53367 15.2171 5.71703 15.1223 5.90344C15.107 5.92789 15.0948 5.95539 15.0887 5.98595C15.0551 5.98595 15.0459 5.95539 15.0368 5.934C14.997 5.8576 14.9665 5.77815 14.9267 5.70175C14.8809 5.61007 14.8289 5.51838 14.7831 5.4267C14.6975 5.25863 14.6089 5.09054 14.5295 4.91941C14.4469 4.7391 14.343 4.57102 14.2636 4.38766C14.178 4.19208 14.0649 4.01178 13.9824 3.81619C13.9366 3.70923 13.8724 3.60838 13.8205 3.50142C13.738 3.3364 13.6493 3.17137 13.5729 3.00329C13.4843 2.81077 13.3743 2.62741 13.2918 2.43182C13.2459 2.32486 13.1787 2.22401 13.1298 2.11705C13.0381 1.9123 12.922 1.71977 12.8334 1.51197C12.7875 1.405 12.7234 1.30416 12.6714 1.1972C12.5033 0.85798 12.3322 0.52182 12.1641 0.182604C12.1458 0.1551 12.1336 0.12454 12.1274 0.0939795L12.1427 0.0848115C13.3009 0.0817555 14.4592 0.0848115 15.6205 0.0848115C16.3906 0.0848115 17.1576 0.0848115 17.9277 0.0848115C17.9583 0.0848115 17.9919 0.0756435 18.0225 0.0939795C18.0255 0.118428 18.053 0.13982 18.0255 0.167324C17.94 0.268172 17.9002 0.393468 17.8422 0.50654C17.5488 1.07496 17.2646 1.64949 16.9773 2.22401C16.904 2.35848 16.8337 2.496 16.7695 2.63352C16.6901 2.78632 16.6137 2.93912 16.5373 3.09497C16.3845 3.38835 16.2439 3.6909 16.088 3.98122C16.0727 4.00261 16.0605 4.02706 16.0513 4.0515C16.0391 4.06067 16.0422 4.07901 16.033 4.08818C16.0177 4.09429 16.0208 4.11262 16.0116 4.12179Z" fill="#E33936"/>
<path d="M16.9712 2.221C17.017 2.06209 17.1026 1.91846 17.1821 1.77483C17.2096 1.72593 17.2279 1.67398 17.2523 1.62203C17.3593 1.41422 17.4602 1.20641 17.5641 0.998602C17.6466 0.836634 17.723 0.67161 17.8085 0.509642C17.8666 0.402682 17.9155 0.295722 17.9705 0.185705C17.9827 0.161257 17.9919 0.142921 18.0225 0.161257C18.0225 0.735786 18.0225 1.31031 18.0225 1.88179C18.0225 5.97072 18.0225 10.0597 18.0225 14.1486C18.0225 14.228 18.0286 14.3075 18.0072 14.387C18.0072 14.3564 18.0041 14.3289 18.0041 14.2983V0.249882C17.9766 0.252938 17.9736 0.27433 17.9674 0.292666C17.9369 0.35073 17.9094 0.408794 17.8788 0.466858C17.5885 1.02611 17.3074 1.58841 17.0262 2.15377C17.0109 2.17822 17.0018 2.20878 16.9712 2.221Z" fill="#E34C37"/>
<path d="M12.1243 0.0909163C12.0877 0.0970283 12.0632 0.130644 12.0693 0.167316V0.170372C12.0693 0.19482 12.0693 0.216212 12.0693 0.24066C12.0693 3.82841 12.0693 7.41921 12.0693 11.007C12.0693 11.1475 12.0846 11.1353 11.941 11.1353C10.034 11.1353 8.12402 11.1353 6.21708 11.1353C6.1804 11.1353 6.13456 11.1567 6.104 11.1109C6.13456 11.1231 6.16818 11.1261 6.19874 11.1231H11.9624C11.9746 11.1231 11.9868 11.1231 11.999 11.1231C12.0418 11.1261 12.0602 11.1109 12.0571 11.0681C12.054 11.0406 12.0571 11.0161 12.0571 10.9886V0.207044C12.0571 0.185652 12.0571 0.167316 12.0571 0.145924C12.051 0.0939723 12.0785 0.0756362 12.1243 0.0786922V0.0909163Z" fill="#E9654C"/>
<path d="M6.04955 0.145466C6.04955 0.121018 6.07094 0.0874015 6.01899 0.0935135C5.99454 0.0935135 5.97009 0.0935135 5.9487 0.0935135H0.172852C0.1973 0.0598974 0.233972 0.0782335 0.261476 0.0782335C0.667924 0.0751775 1.07132 0.0782335 1.47471 0.0782335C2.97215 0.0782335 4.47265 0.0782335 5.97009 0.0782335C6.00676 0.0782335 6.04649 0.0660095 6.08316 0.0935135C6.08316 1.32508 6.08316 2.55665 6.08316 3.78517V11.0982C6.05566 11.086 6.06788 11.0646 6.06483 11.0493C6.06483 11.0279 6.06483 11.0096 6.06483 10.9882C6.06483 7.4157 6.06483 3.84017 6.06483 0.26465C6.06788 0.221866 6.08316 0.179082 6.04955 0.145466Z" fill="#E7563D"/>
<path d="M12.124 0.0910037C12.124 0.0879477 12.124 0.0818357 12.124 0.0787797C12.1576 0.0757237 12.1882 0.0726677 12.2218 0.0726677C14.1226 0.0726677 16.0204 0.0726677 17.9213 0.0726677C17.9549 0.0726677 17.9915 0.0573876 18.0191 0.0879477L12.124 0.0910037Z" fill="#E85C50"/>
<path d="M12.0694 17.2047C12.0297 17.2047 11.993 17.2047 11.9533 17.2047H6.19275C6.15608 17.2047 6.12246 17.2016 6.08579 17.2016C6.07968 17.1649 6.08579 17.1313 6.10412 17.0977C6.25692 16.7768 6.40667 16.4559 6.55947 16.1351C6.86201 15.5025 7.15845 14.8668 7.46099 14.2373C7.47016 14.2128 7.48544 14.1884 7.50377 14.1731H10.6637C10.7401 14.3076 10.8012 14.4481 10.8654 14.5857C10.9876 14.8515 11.116 15.1143 11.2413 15.3802C11.5102 15.9456 11.7791 16.514 12.045 17.0794C12.0694 17.1191 12.0786 17.1619 12.0694 17.2047Z" fill="#CF3339"/>
<path d="M7.50676 14.1732C7.49454 14.2252 7.4762 14.2741 7.4487 14.323C7.30201 14.6286 7.15226 14.9342 7.00863 15.2398C6.91084 15.4476 6.81305 15.6554 6.71526 15.8632C6.60218 16.1046 6.48911 16.343 6.37298 16.5813C6.28742 16.7586 6.2049 16.9389 6.12239 17.1192C6.11017 17.1467 6.101 17.1742 6.08878 17.2017L6.06738 17.2078C6.06738 17.1681 6.06738 17.1314 6.06738 17.0917V11.1936C6.09489 11.2119 6.11628 11.2394 6.12545 11.27C6.18351 11.3984 6.24158 11.5298 6.3027 11.6551C6.39743 11.8537 6.49522 12.0493 6.5869 12.2449C6.74887 12.5933 6.9139 12.9386 7.07892 13.2839C7.17671 13.4887 7.27145 13.6965 7.3723 13.9012C7.41508 13.9929 7.44564 14.0907 7.50676 14.1732Z" fill="#E33937"/>
<path d="M12.0693 17.2046C12.0479 17.0977 11.9868 17.0091 11.9471 16.9113C11.8951 16.786 11.834 16.6668 11.7729 16.5415C11.6354 16.2542 11.4948 15.967 11.3603 15.6797C11.2503 15.4474 11.1403 15.2152 11.0303 14.9829C10.9111 14.7384 10.8011 14.4909 10.685 14.2464C10.6727 14.222 10.6636 14.1975 10.6636 14.17C10.8408 13.7972 11.0211 13.4244 11.1953 13.0485C11.2992 12.8284 11.4031 12.6115 11.507 12.3914C11.6232 12.147 11.7362 11.9055 11.8524 11.6641C11.9135 11.5357 11.9715 11.4074 12.0296 11.279C12.0388 11.2485 12.0571 11.2179 12.0846 11.1965V11.2882C12.0846 13.2257 12.0846 15.1663 12.0846 17.1038C12.0877 17.1405 12.0999 17.1771 12.0693 17.2046Z" fill="#E33937"/>
<path d="M4.27002 17.1924C4.28836 17.168 4.31892 17.171 4.34336 17.171H6.00277C6.015 17.171 6.02722 17.1741 6.03945 17.1771C6.00583 17.1894 5.97221 17.1924 5.9386 17.1863H4.34948C4.32503 17.1894 4.29752 17.1924 4.27002 17.1924Z" fill="#E75840"/>
<path d="M16.0815 3.9782C16.0846 3.95681 16.0907 3.93848 16.1029 3.92014C16.2343 3.65732 16.3658 3.39451 16.4972 3.13169C16.5033 3.11336 16.5124 3.10113 16.5277 3.08891C16.5338 3.07974 16.5399 3.07974 16.5461 3.08891C16.4116 3.36089 16.2741 3.62982 16.1396 3.9018C16.1243 3.92931 16.1152 3.96598 16.0815 3.9782Z" fill="#E04437"/>
<path d="M16.5432 3.09187H16.5249C16.5616 2.98185 16.6258 2.881 16.6746 2.77404C16.6991 2.72515 16.7144 2.67014 16.7541 2.63041C16.7602 2.62124 16.7663 2.62124 16.7724 2.63041L16.5432 3.09187Z" fill="#E24837"/>
<path d="M16.7752 2.63045H16.7568C16.8149 2.48682 16.876 2.34624 16.9708 2.22095C16.9738 2.23928 16.9677 2.25762 16.9616 2.2729C16.8882 2.38597 16.8363 2.51127 16.7752 2.63045Z" fill="#E34C37"/>
<path d="M16.0482 4.04856C16.0421 4.018 16.0574 3.9905 16.0849 3.97827C16.0818 4.00578 16.0696 4.03328 16.0482 4.04856Z" fill="#E04437"/>
<path d="M16.0304 4.08819C16.0273 4.07291 16.0365 4.06068 16.0487 4.05151C16.0487 4.06679 16.0426 4.07902 16.0304 4.08819Z" fill="#E04437"/>
<path d="M16.0113 4.12188C16.0083 4.1066 16.0174 4.09437 16.0297 4.08521C16.0297 4.10049 16.0236 4.11271 16.0113 4.12188Z" fill="#E04437"/>
</svg>
