<svg width="48" height="16" viewBox="0 0 48 16" fill="none" xmlns="http://www.w3.org/2000/svg">
<path d="M18.224 0.524017L11.94 15.516H7.84L4.748 3.55002C4.56 2.81402 4.398 2.54402 3.826 2.23402C2.894 1.72802 1.354 1.25402 0 0.958017L0.092 0.524017H6.692C7.1233 0.523585 7.54054 0.677346 7.86842 0.957546C8.19629 1.23775 8.41321 1.62592 8.48 2.05202L10.114 10.728L14.15 0.524017H18.224ZM34.29 10.622C34.306 6.66402 28.818 6.44602 28.856 4.67802C28.868 4.14002 29.38 3.56802 30.5 3.42202C31.8126 3.29736 33.1345 3.52953 34.326 4.09402L35.006 0.914017C33.8459 0.477907 32.6173 0.25237 31.378 0.248016C27.544 0.248016 24.846 2.28802 24.822 5.20602C24.798 7.36402 26.748 8.56602 28.218 9.28602C29.73 10.02 30.238 10.492 30.23 11.148C30.22 12.156 29.026 12.598 27.91 12.616C25.96 12.646 24.83 12.09 23.926 11.67L23.224 14.954C24.13 15.37 25.802 15.734 27.536 15.75C31.61 15.75 34.276 13.738 34.29 10.622ZM44.412 15.516H48L44.87 0.524017H41.558C41.2041 0.520738 40.8574 0.623854 40.5629 0.819994C40.2683 1.01613 40.0394 1.29625 39.906 1.62402L34.088 15.516H38.16L38.97 13.276H43.946L44.412 15.516ZM40.086 10.204L42.126 4.57402L43.302 10.204H40.086ZM23.766 0.524017L20.56 15.516H16.68L19.89 0.524017H23.766Z" fill="white"/>
</svg>
